<svg width="161" height="161" viewBox="0 0 161 161" fill="none" xmlns="http://www.w3.org/2000/svg">
<g opacity="0.8" filter="url(#filter0_d_0_200)">
<circle cx="78.5" cy="70.5" r="46.5" fill="#F9F9F9"/>
</g>
<g filter="url(#filter1_d_0_200)">
<circle cx="78.5" cy="70.5" r="36.5" fill="#F9F9F9"/>
</g>
<path d="M98.5587 66.5771C97.3532 65.5916 95.6461 65.2762 94.209 65.7732C93.8239 65.9066 93.4663 66.0936 93.1459 66.3293C92.3288 66.9304 90.5148 68.7348 89.0773 70.5205V56.7553C89.0773 55.5852 88.5963 54.4417 87.7578 53.6175C86.9253 52.7993 85.8318 52.358 84.6843 52.3795C84.1633 52.3888 83.6641 52.4921 83.2028 52.6727V51.3282C83.2028 50.0548 82.6793 48.8101 81.7661 47.9125C80.861 47.0229 79.6767 46.5433 78.4241 46.5662C75.9267 46.6095 73.8877 48.6395 73.813 51.1211C73.272 50.8758 72.6845 50.7382 72.0762 50.7199C70.8075 50.6827 69.5509 51.1737 68.6298 52.068C67.7276 52.9438 67.2305 54.0998 67.2305 55.3199L67.2273 56.6237C66.8379 56.4957 66.4228 56.4256 65.9912 56.4256C63.8131 56.4256 62.0413 58.1974 62.0413 60.3751L62.0427 80.3849L62.0459 80.4797C62.2279 83.1058 62.7775 85.3543 63.6801 87.163C64.5261 88.8586 65.7065 90.2239 67.1884 91.2208C70.1045 93.1833 73.7068 93.435 76.5192 93.435C82.0421 93.435 87.0108 90.6891 89.4956 86.2665C89.7978 85.7795 90.5942 84.5272 91.4541 83.1766C92.2916 81.8607 93.0708 80.6481 93.7577 79.5782C94.1353 78.99 94.479 78.455 94.7772 77.9887C95.8882 76.2512 97.0722 74.5666 98.2966 72.9815C98.7507 72.3936 98.8905 72.2341 98.9223 72.1991C99.4955 71.5736 99.8567 70.808 99.9668 69.9845C100.14 68.6926 99.6268 67.4503 98.5587 66.5771ZM97.242 69.6198C97.2066 69.883 97.0868 70.1326 96.8955 70.3414C96.7958 70.4505 96.6173 70.6579 96.121 71.3008C94.8469 72.95 93.6154 74.7018 92.4608 76.5076C92.1632 76.9728 91.821 77.5056 91.4441 78.0924C90.7558 79.1645 89.9755 80.3799 89.1348 81.7001C88.2548 83.0825 87.4402 84.3631 87.142 84.8447L87.1109 84.8977C85.1166 88.4678 81.0584 90.6855 76.5196 90.6855C74.0976 90.6855 71.0224 90.4871 68.7235 88.9402C66.3777 87.3618 65.0918 84.5476 64.7922 80.3366L64.7907 60.3755C64.7907 59.7136 65.3293 59.1751 65.9912 59.1751C66.657 59.1751 67.1987 59.7136 67.1987 60.3755V67.8637C67.1987 67.8859 67.2012 67.9073 67.2019 67.9295C67.2034 67.9538 67.2034 67.9785 67.2059 68.0028C67.208 68.0246 67.2123 68.0457 67.2155 68.0671C67.2191 68.0911 67.2216 68.1154 67.2263 68.1394C67.2309 68.1608 67.2373 68.1819 67.2427 68.203C67.2484 68.2256 67.2531 68.2488 67.2602 68.271C67.2667 68.2924 67.2752 68.3132 67.2831 68.3339C67.2906 68.355 67.2974 68.3765 67.3064 68.3972C67.3149 68.4179 67.3253 68.4376 67.335 68.4576C67.3446 68.4777 67.3536 68.498 67.3639 68.5177C67.3743 68.537 67.3868 68.5556 67.3983 68.5746C67.4097 68.5935 67.4204 68.6128 67.4326 68.6311C67.4451 68.6493 67.459 68.6665 67.4723 68.684C67.4855 68.7019 67.4977 68.7201 67.5116 68.7369C67.5256 68.7537 67.5409 68.7691 67.5552 68.7852C67.5703 68.8016 67.5846 68.8192 67.6003 68.8349C67.6157 68.8499 67.6318 68.8635 67.6479 68.8782C67.6643 68.8932 67.6804 68.9093 67.6979 68.9236C67.7144 68.9372 67.7319 68.9493 67.749 68.9622C67.7673 68.9758 67.7848 68.9901 67.8034 69.003C67.8209 69.0148 67.8395 69.0248 67.8574 69.0355C67.8771 69.0476 67.8964 69.0605 67.9168 69.072C67.9354 69.082 67.955 69.0902 67.974 69.0995C67.9947 69.1099 68.0155 69.1206 68.0369 69.1299C68.0566 69.1385 68.0777 69.1449 68.0977 69.1524C68.1195 69.1603 68.141 69.1692 68.1631 69.1764C68.1842 69.1828 68.2064 69.1875 68.2279 69.1932C68.2504 69.1989 68.2722 69.2057 68.2947 69.2104C68.3176 69.215 68.3405 69.2175 68.3634 69.2211C68.3863 69.2243 68.4084 69.2289 68.4313 69.2314C68.4542 69.2336 68.4778 69.234 68.5011 69.235C68.5239 69.2361 68.5468 69.2386 68.5701 69.2386C68.5711 69.2386 68.5726 69.2386 68.5736 69.2386C68.6212 69.2386 68.668 69.2361 68.7142 69.2314C68.7342 69.2297 68.7539 69.2254 68.7739 69.2225C68.7993 69.2189 68.8254 69.2161 68.8504 69.2107C68.8769 69.2053 68.9023 69.1978 68.928 69.191C68.9459 69.186 68.9645 69.1825 68.982 69.1771C69.0106 69.1682 69.0385 69.1571 69.0664 69.1463C69.08 69.141 69.0946 69.1367 69.1082 69.131C69.1361 69.1192 69.1626 69.1052 69.1894 69.092C69.2023 69.0856 69.2155 69.0802 69.2284 69.0734C69.2534 69.0598 69.277 69.0441 69.301 69.0291C69.3146 69.0208 69.3285 69.0133 69.3414 69.0044C69.3635 68.9897 69.3846 68.9729 69.4057 68.9565C69.4197 68.9461 69.434 68.9364 69.4472 68.9254C69.4669 68.9096 69.4848 68.8917 69.5034 68.8746C69.5173 68.8621 69.5316 68.8499 69.5452 68.837C69.5624 68.8199 69.5777 68.8013 69.5938 68.7834C69.6071 68.7687 69.6214 68.7544 69.6339 68.7394C69.6482 68.7219 69.6611 68.7033 69.6746 68.6851C69.6875 68.6679 69.7011 68.6514 69.7129 68.6336C69.7254 68.6153 69.7358 68.5964 69.7472 68.5774C69.7587 68.5585 69.7712 68.5399 69.7819 68.5206C69.7923 68.5013 69.8009 68.4812 69.8105 68.4616C69.8202 68.4412 69.8309 68.4212 69.8399 68.4004C69.8484 68.3804 69.8549 68.3593 69.8624 68.3389C69.8706 68.3175 69.8792 68.2964 69.8863 68.2742C69.8928 68.2531 69.8974 68.2316 69.9028 68.2102C69.9085 68.1877 69.9153 68.1655 69.9203 68.1426C69.9246 68.1211 69.9271 68.0986 69.9303 68.0764C69.9343 68.0532 69.9385 68.03 69.9411 68.0064C69.9436 67.9842 69.9436 67.9613 69.9446 67.9388C69.9461 67.9148 69.9486 67.8916 69.9486 67.8676L69.9804 55.3235C69.9804 54.8501 70.181 54.3945 70.545 54.0408C70.9362 53.6614 71.4654 53.4519 71.995 53.4683C72.987 53.498 73.794 54.3609 73.794 55.3939L73.8098 67.7911C73.8098 67.8161 73.8123 67.8404 73.8137 67.8648C73.8148 67.8866 73.8148 67.9091 73.8169 67.9306C73.8194 67.9563 73.8244 67.981 73.8284 68.006C73.8316 68.0264 73.8337 68.0471 73.8377 68.0671C73.8434 68.0943 73.8513 68.1208 73.8584 68.1472C73.8631 68.1644 73.8666 68.1819 73.8716 68.1987C73.8806 68.2273 73.892 68.2552 73.9027 68.2831C73.9081 68.2971 73.912 68.3114 73.9178 68.325C73.9306 68.3546 73.9453 68.3836 73.96 68.4122C73.9657 68.4229 73.97 68.4344 73.9757 68.4448C73.9918 68.4744 74.01 68.5027 74.0279 68.5306C74.0336 68.5399 74.0386 68.5492 74.0447 68.5581C74.0637 68.5864 74.0844 68.6128 74.1051 68.6393C74.1116 68.6475 74.1173 68.6561 74.1237 68.664C74.147 68.6922 74.172 68.7187 74.1974 68.7448C74.2028 68.7505 74.2071 68.7562 74.2124 68.7616C74.2385 68.7877 74.2664 68.812 74.2947 68.836C74.3 68.8406 74.3047 68.8456 74.31 68.8503C74.3383 68.8735 74.3676 68.8946 74.3973 68.9153C74.4037 68.92 74.4094 68.925 74.4159 68.9293C74.4459 68.9497 74.4774 68.9679 74.5089 68.9858C74.5156 68.9897 74.5221 68.9944 74.5292 68.9983C74.5621 69.0158 74.5961 69.0316 74.6304 69.0469C74.6369 69.0498 74.643 69.0534 74.6494 69.0562C74.6844 69.0709 74.7205 69.0834 74.757 69.0956C74.7635 69.0974 74.7692 69.1002 74.7756 69.1024C74.8117 69.1134 74.8486 69.1224 74.8854 69.1306C74.8929 69.132 74.9001 69.1345 74.9076 69.1363C74.997 69.1546 75.0896 69.1642 75.1843 69.1642C75.1851 69.1642 75.1858 69.1642 75.1865 69.1642C75.2104 69.1642 75.234 69.1617 75.2576 69.1606C75.2805 69.1592 75.3034 69.1592 75.3259 69.1571C75.351 69.1542 75.3749 69.1496 75.3996 69.1456C75.4203 69.1424 75.4418 69.1403 75.4625 69.136C75.4872 69.131 75.5112 69.1238 75.5355 69.1174C75.5552 69.112 75.5748 69.1081 75.5941 69.102C75.6188 69.0945 75.6424 69.0848 75.6664 69.0755C75.6842 69.0687 75.7028 69.0634 75.7204 69.0559C75.745 69.0451 75.769 69.0326 75.7929 69.0208C75.8087 69.013 75.8251 69.0062 75.8405 68.9979C75.8641 68.9851 75.8866 68.9701 75.9095 68.9561C75.9242 68.9468 75.9396 68.9386 75.9539 68.9289C75.9757 68.9143 75.9961 68.8978 76.0168 68.8817C76.0311 68.871 76.0458 68.861 76.0597 68.8495C76.0794 68.8335 76.098 68.8152 76.1169 68.7977C76.1302 68.7855 76.1441 68.7737 76.1573 68.7609C76.1748 68.743 76.1913 68.7237 76.2081 68.7051C76.2206 68.6911 76.2339 68.6779 76.246 68.6632C76.261 68.6446 76.2746 68.625 76.2886 68.606C76.3007 68.5896 76.3136 68.5738 76.325 68.5574C76.3379 68.5384 76.3486 68.5184 76.3604 68.4988C76.3715 68.4805 76.3837 68.4626 76.3937 68.444C76.4044 68.4244 76.413 68.4036 76.4227 68.3836C76.4323 68.3636 76.443 68.3443 76.4516 68.3235C76.4598 68.3039 76.4666 68.2831 76.4738 68.2627C76.482 68.2409 76.491 68.2195 76.4977 68.1973C76.5042 68.1759 76.5088 68.154 76.5146 68.1322C76.5203 68.1101 76.5271 68.0882 76.5314 68.0657C76.536 68.0432 76.5385 68.0199 76.5421 67.9974C76.5453 67.9745 76.55 67.952 76.5521 67.9291C76.5546 67.9059 76.5546 67.8823 76.5557 67.8587C76.5571 67.8354 76.5593 67.8129 76.5593 67.7893V51.2624C76.5593 50.2068 77.4175 49.3336 78.472 49.3153C78.9808 49.3082 79.4643 49.5049 79.8394 49.8735C80.2299 50.2572 80.4537 50.7875 80.4537 51.3282V67.8651C80.4537 67.8901 80.4562 67.9145 80.4577 67.9391C80.4587 67.9609 80.4587 67.9831 80.4609 68.0049C80.4634 68.0292 80.4684 68.0528 80.472 68.0768C80.4755 68.0986 80.4777 68.1204 80.482 68.1415C80.487 68.1655 80.4941 68.1887 80.5002 68.2123C80.5056 68.2327 80.5095 68.2531 80.5159 68.2731C80.5238 68.2985 80.5338 68.3232 80.5431 68.3479C80.5496 68.365 80.5549 68.3825 80.5621 68.3993C80.5732 68.4251 80.586 68.4498 80.5985 68.4748C80.6057 68.4895 80.6121 68.5048 80.62 68.5195C80.6336 68.5449 80.6493 68.5688 80.6647 68.5932C80.6729 68.606 80.6801 68.62 80.689 68.6329C80.7055 68.6572 80.7237 68.6804 80.7419 68.7037C80.7509 68.7151 80.7587 68.7273 80.768 68.7383C80.7881 68.763 80.8102 68.7859 80.8321 68.8091C80.8406 68.8177 80.8481 68.8274 80.8567 68.836C80.8793 68.8588 80.9036 68.8796 80.9279 68.9007C80.9368 68.9085 80.945 68.9171 80.9543 68.9246C80.9815 68.9472 81.0101 68.9676 81.0387 68.9879C81.0459 68.9929 81.0527 68.9987 81.0602 69.004C81.0909 69.0248 81.1231 69.0437 81.1557 69.062C81.1617 69.0652 81.1671 69.0695 81.1732 69.0727C81.2089 69.092 81.2454 69.1092 81.283 69.1256C81.2865 69.127 81.2898 69.1292 81.2933 69.1306C81.3323 69.1471 81.3724 69.1614 81.4131 69.1742C81.4153 69.1753 81.4174 69.176 81.4199 69.1767C81.5054 69.2036 81.5944 69.2218 81.6863 69.2314C81.687 69.2314 81.6874 69.2314 81.6881 69.2314C81.7342 69.2361 81.7811 69.2386 81.8286 69.2386C81.829 69.2386 81.8294 69.2386 81.8301 69.2386C81.8544 69.2386 81.8783 69.2361 81.9027 69.235C81.9252 69.2336 81.9477 69.2336 81.9699 69.2314C81.9953 69.2289 82.02 69.2239 82.045 69.22C82.0654 69.2168 82.0861 69.2146 82.1065 69.2104C82.1333 69.205 82.1591 69.1971 82.1852 69.1903C82.2027 69.1857 82.2209 69.1821 82.2381 69.1767C82.266 69.1678 82.2928 69.1571 82.32 69.1467C82.3346 69.141 82.3496 69.1363 82.3643 69.1303C82.3918 69.1185 82.4183 69.1049 82.4451 69.0913C82.458 69.0848 82.4716 69.0795 82.4845 69.0723C82.5106 69.058 82.5356 69.0419 82.561 69.0258C82.5731 69.0183 82.5857 69.0115 82.5978 69.0033C82.6236 68.9861 82.6475 68.9668 82.6718 68.9479C82.6822 68.94 82.6933 68.9325 82.7037 68.9243C82.7276 68.9043 82.7501 68.8824 82.773 68.861C82.7823 68.8524 82.7923 68.8445 82.8009 68.8356C82.8231 68.8134 82.8438 68.7898 82.8642 68.7659C82.8728 68.7566 82.8817 68.7476 82.89 68.738C82.9096 68.714 82.9275 68.6886 82.9454 68.6636C82.9529 68.6529 82.9615 68.6429 82.969 68.6321C82.9858 68.6071 83.0008 68.581 83.0158 68.5549C83.023 68.5427 83.0312 68.5313 83.038 68.5188C83.0523 68.4923 83.0645 68.4648 83.077 68.4373C83.0831 68.4244 83.0902 68.4119 83.0956 68.3986C83.107 68.3718 83.1163 68.3439 83.126 68.3164C83.131 68.3017 83.1374 68.2874 83.1421 68.272C83.1499 68.2459 83.156 68.2184 83.1628 68.1916C83.1667 68.1744 83.1721 68.1576 83.1757 68.1405C83.181 68.114 83.1843 68.0865 83.1882 68.0596C83.1907 68.041 83.1946 68.0228 83.1964 68.0039C83.1993 67.9788 83.1993 67.9531 83.2003 67.9273C83.2014 67.9062 83.2036 67.8855 83.2036 67.8637V56.5168C83.293 55.7497 83.9441 55.1422 84.7326 55.1286C85.1377 55.1218 85.5289 55.2813 85.8311 55.5785C86.1472 55.8888 86.3285 56.3179 86.3285 56.7553V72.9822L86.3292 73.0437C86.3367 73.9344 86.9217 74.6871 87.7846 74.9167C88.6417 75.1445 89.5175 74.7844 89.968 74.0127L89.9766 73.9974C91.0544 72.1143 93.9351 69.1628 94.7761 68.5442C94.8734 68.4723 94.9853 68.4147 95.1087 68.3718C95.6565 68.1826 96.3434 68.3167 96.819 68.7058C97.0429 68.8892 97.2985 69.1968 97.242 69.6198Z" fill="black"/>
<defs>
<filter id="filter0_d_0_200" x="0" y="0" width="161" height="161" filterUnits="userSpaceOnUse" color-interpolation-filters="sRGB">
<feFlood flood-opacity="0" result="BackgroundImageFix"/>
<feColorMatrix in="SourceAlpha" type="matrix" values="0 0 0 0 0 0 0 0 0 0 0 0 0 0 0 0 0 0 127 0" result="hardAlpha"/>
<feOffset dx="2" dy="10"/>
<feGaussianBlur stdDeviation="17"/>
<feColorMatrix type="matrix" values="0 0 0 0 0.0599965 0 0 0 0 0.0750638 0 0 0 0 0.154167 0 0 0 0.15 0"/>
<feBlend mode="normal" in2="BackgroundImageFix" result="effect1_dropShadow_0_200"/>
<feBlend mode="normal" in="SourceGraphic" in2="effect1_dropShadow_0_200" result="shape"/>
</filter>
<filter id="filter1_d_0_200" x="10" y="10" width="141" height="141" filterUnits="userSpaceOnUse" color-interpolation-filters="sRGB">
<feFlood flood-opacity="0" result="BackgroundImageFix"/>
<feColorMatrix in="SourceAlpha" type="matrix" values="0 0 0 0 0 0 0 0 0 0 0 0 0 0 0 0 0 0 127 0" result="hardAlpha"/>
<feOffset dx="2" dy="10"/>
<feGaussianBlur stdDeviation="17"/>
<feColorMatrix type="matrix" values="0 0 0 0 0.0599965 0 0 0 0 0.0750638 0 0 0 0 0.154167 0 0 0 0.15 0"/>
<feBlend mode="normal" in2="BackgroundImageFix" result="effect1_dropShadow_0_200"/>
<feBlend mode="normal" in="SourceGraphic" in2="effect1_dropShadow_0_200" result="shape"/>
</filter>
</defs>
</svg>
