<svg width="195" height="93" viewBox="0 0 195 93" fill="none" xmlns="http://www.w3.org/2000/svg">
<rect x="13" y="5" width="169" height="65" rx="32.5" fill="#F7D5DF"/>
<g filter="url(#filter0_d_0_134)">
<rect x="21" y="12" width="153.203" height="51.0676" rx="25.5338" fill="#E0677C"/>
</g>
<path d="M98.9035 45.2213C97.2807 45.2213 95.8866 44.8967 94.7211 44.2476C93.5704 43.5837 92.6852 42.6543 92.0656 41.4593C91.446 40.2496 91.1361 38.8259 91.1361 37.1884C91.1361 35.5508 91.446 34.1345 92.0656 32.9395C92.6852 31.7446 93.5704 30.8225 94.7211 30.1734C95.8866 29.5095 97.2807 29.1776 98.9035 29.1776C99.951 29.1776 100.939 29.3398 101.869 29.6644C102.813 29.989 103.588 30.4537 104.192 31.0585L103.263 33.3157C102.599 32.7551 101.92 32.3494 101.227 32.0986C100.534 31.8331 99.7887 31.7003 98.992 31.7003C97.4135 31.7003 96.2111 32.1798 95.385 33.1387C94.5588 34.0829 94.1457 35.4328 94.1457 37.1884C94.1457 38.944 94.5588 40.3012 95.385 41.2602C96.2111 42.2191 97.4135 42.6986 98.992 42.6986C99.7887 42.6986 100.534 42.5732 101.227 42.3224C101.92 42.0568 102.599 41.6437 103.263 41.0831L104.192 43.3403C103.588 43.9304 102.813 44.3951 101.869 44.7344C100.939 45.059 99.951 45.2213 98.9035 45.2213ZM109.573 45.2213C108.791 45.2213 108.09 45.0738 107.47 44.7787C106.866 44.4689 106.386 44.0558 106.032 43.5395C105.693 43.0231 105.523 42.4404 105.523 41.7913C105.523 40.9946 105.73 40.3676 106.143 39.9103C106.556 39.4382 107.227 39.0989 108.157 38.8923C109.086 38.6858 110.333 38.5825 111.896 38.5825H112.671V38.1178C112.671 37.3801 112.509 36.849 112.184 36.5245C111.859 36.1999 111.314 36.0376 110.546 36.0376C109.942 36.0376 109.322 36.1335 108.688 36.3253C108.053 36.5024 107.411 36.7827 106.762 37.1662L105.966 35.2852C106.349 35.0197 106.799 34.791 107.316 34.5992C107.847 34.3927 108.4 34.2378 108.975 34.1345C109.565 34.0165 110.119 33.9575 110.635 33.9575C112.214 33.9575 113.386 34.3263 114.154 35.0639C114.921 35.7868 115.304 36.9154 115.304 38.4497V45H112.715V43.2739C112.464 43.8788 112.066 44.3583 111.52 44.7123C110.974 45.0516 110.325 45.2213 109.573 45.2213ZM110.148 43.3182C110.871 43.3182 111.469 43.0674 111.941 42.5658C112.427 42.0642 112.671 41.4298 112.671 40.6627V40.1758H111.918C110.532 40.1758 109.565 40.2865 109.02 40.5078C108.488 40.7143 108.223 41.0979 108.223 41.6585C108.223 42.1453 108.393 42.5436 108.732 42.8535C109.071 43.1633 109.543 43.3182 110.148 43.3182ZM121.874 45.2213C120.59 45.2213 119.639 44.8746 119.019 44.1812C118.414 43.4731 118.112 42.4404 118.112 41.0831V29.3989H120.878V40.9503C120.878 42.2781 121.439 42.942 122.56 42.942C122.722 42.942 122.884 42.9346 123.047 42.9198C123.209 42.9051 123.364 42.8756 123.511 42.8313L123.467 45.0221C122.936 45.1549 122.405 45.2213 121.874 45.2213ZM128.941 45.2213C127.657 45.2213 126.706 44.8746 126.086 44.1812C125.481 43.4731 125.179 42.4404 125.179 41.0831V29.3989H127.945V40.9503C127.945 42.2781 128.505 42.942 129.627 42.942C129.789 42.942 129.951 42.9346 130.113 42.9198C130.276 42.9051 130.431 42.8756 130.578 42.8313L130.534 45.0221C130.003 45.1549 129.472 45.2213 128.941 45.2213Z" fill="white"/>
<g clip-path="url(#clip0_0_134)">
<path d="M79.9601 29.8175L76.5024 29.0196C76.1267 28.9331 75.7411 29.1293 75.5881 29.4817L73.9923 33.2054C73.8526 33.5312 73.9457 33.9136 74.2217 34.1363L76.2365 35.7854C75.0396 38.3354 72.9483 40.4566 70.3451 41.6768L68.696 39.662C68.4699 39.386 68.0909 39.2929 67.7651 39.4326L64.0414 41.0284C63.6857 41.1847 63.4895 41.5704 63.576 41.9461L64.3739 45.4038C64.457 45.7628 64.7762 46.0222 65.1519 46.0222C73.6665 46.0222 80.5785 39.1234 80.5785 30.5955C80.5785 30.2231 80.3225 29.9006 79.9601 29.8175Z" fill="white"/>
</g>
<defs>
<filter id="filter0_d_0_134" x="0.572968" y="0.0842314" width="194.057" height="91.9217" filterUnits="userSpaceOnUse" color-interpolation-filters="sRGB">
<feFlood flood-opacity="0" result="BackgroundImageFix"/>
<feColorMatrix in="SourceAlpha" type="matrix" values="0 0 0 0 0 0 0 0 0 0 0 0 0 0 0 0 0 0 127 0" result="hardAlpha"/>
<feOffset dy="8.51126"/>
<feGaussianBlur stdDeviation="10.2135"/>
<feColorMatrix type="matrix" values="0 0 0 0 0.791667 0 0 0 0 0.182743 0 0 0 0 0.365772 0 0 0 0.3 0"/>
<feBlend mode="normal" in2="BackgroundImageFix" result="effect1_dropShadow_0_134"/>
<feBlend mode="normal" in="SourceGraphic" in2="effect1_dropShadow_0_134" result="shape"/>
</filter>
<clipPath id="clip0_0_134">
<rect width="17.0225" height="17.0225" fill="white" transform="translate(63.5564 29)"/>
</clipPath>
</defs>
</svg>
