<svg width="195" height="93" viewBox="0 0 195 93" fill="none" xmlns="http://www.w3.org/2000/svg">
<g filter="url(#filter0_d_0_131)">
<rect x="20.6631" y="12.667" width="153.203" height="51.0676" rx="25.5338" fill="#58A5A0"/>
</g>
<path d="M59.704 45V29.3989H66.4755C68.1868 29.3989 69.5072 29.8267 70.4367 30.6824C71.3661 31.538 71.8308 32.733 71.8308 34.2673C71.8308 35.8016 71.3661 37.004 70.4367 37.8744C69.5072 38.73 68.1868 39.1579 66.4755 39.1579H62.5365V45H59.704ZM62.5365 36.9228H66.0329C68.0688 36.9228 69.0868 36.0376 69.0868 34.2673C69.0868 32.5117 68.0688 31.6339 66.0329 31.6339H62.5365V36.9228ZM73.6582 45V34.1788H76.358V36.0819C76.8891 34.7984 78.025 34.0903 79.7659 33.9575L80.6068 33.8911L80.7838 36.2368L79.1905 36.3917C77.3759 36.5687 76.4686 37.4982 76.4686 39.18V45H73.6582ZM87.4843 45.2213C86.2598 45.2213 85.205 44.9926 84.3198 44.5353C83.4347 44.0779 82.7487 43.4288 82.2618 42.5879C81.7897 41.747 81.5537 40.7512 81.5537 39.6005C81.5537 38.4792 81.7824 37.4982 82.2397 36.6573C82.7118 35.8163 83.3535 35.1598 84.1649 34.6878C84.9911 34.2009 85.9279 33.9575 86.9754 33.9575C88.5097 33.9575 89.7194 34.4443 90.6046 35.418C91.5045 36.3917 91.9544 37.7195 91.9544 39.4013V40.2201H84.2092C84.4157 42.1527 85.5222 43.119 87.5286 43.119C88.1335 43.119 88.7383 43.0305 89.3432 42.8535C89.9481 42.6617 90.5013 42.3666 91.0029 41.9683L91.7774 43.8271C91.2611 44.255 90.6119 44.5943 89.83 44.8451C89.0481 45.0959 88.2662 45.2213 87.4843 45.2213ZM87.086 35.8385C86.2746 35.8385 85.6181 36.0893 85.1165 36.5909C84.6149 37.0925 84.3125 37.7711 84.2092 38.6268H89.653C89.594 37.7268 89.3432 37.0408 88.9006 36.5687C88.4728 36.0819 87.8679 35.8385 87.086 35.8385ZM98.1062 45.2213C97.1915 45.2213 96.3359 45.1106 95.5392 44.8894C94.7426 44.6681 94.0787 44.3509 93.5476 43.9378L94.2557 42.1232C94.8016 42.492 95.4138 42.7797 96.0925 42.9862C96.7711 43.178 97.4497 43.2739 98.1283 43.2739C98.8365 43.2739 99.3602 43.1559 99.6995 42.9198C100.054 42.669 100.231 42.3445 100.231 41.9462C100.231 41.3265 99.7733 40.9282 98.8586 40.7512L96.6457 40.3307C94.7721 39.9767 93.8353 39.003 93.8353 37.4097C93.8353 36.7015 94.0271 36.0893 94.4106 35.5729C94.809 35.0566 95.3548 34.6582 96.0482 34.3779C96.7416 34.0976 97.5382 33.9575 98.4382 33.9575C99.2053 33.9575 99.9429 34.0681 100.651 34.2894C101.359 34.496 101.964 34.8132 102.466 35.241L101.713 37.0556C101.285 36.7015 100.769 36.4212 100.164 36.2147C99.5741 36.0081 99.0061 35.9049 98.4603 35.9049C97.7374 35.9049 97.1989 36.0303 96.8448 36.2811C96.5055 36.5319 96.3359 36.8638 96.3359 37.2769C96.3359 37.926 96.7563 38.3243 97.5972 38.4719L99.8102 38.8923C100.769 39.0694 101.492 39.3939 101.979 39.866C102.48 40.3381 102.731 40.9725 102.731 41.7691C102.731 42.8461 102.311 43.6944 101.47 44.314C100.629 44.9189 99.5077 45.2213 98.1062 45.2213ZM110.284 45.2213C109.059 45.2213 108.004 44.9926 107.119 44.5353C106.234 44.0779 105.548 43.4288 105.061 42.5879C104.589 41.747 104.353 40.7512 104.353 39.6005C104.353 38.4792 104.582 37.4982 105.039 36.6573C105.511 35.8163 106.153 35.1598 106.964 34.6878C107.79 34.2009 108.727 33.9575 109.775 33.9575C111.309 33.9575 112.519 34.4443 113.404 35.418C114.304 36.3917 114.754 37.7195 114.754 39.4013V40.2201H107.008C107.215 42.1527 108.321 43.119 110.328 43.119C110.933 43.119 111.538 43.0305 112.142 42.8535C112.747 42.6617 113.301 42.3666 113.802 41.9683L114.577 43.8271C114.06 44.255 113.411 44.5943 112.629 44.8451C111.847 45.0959 111.065 45.2213 110.284 45.2213ZM109.885 35.8385C109.074 35.8385 108.417 36.0893 107.916 36.5909C107.414 37.0925 107.112 37.7711 107.008 38.6268H112.452C112.393 37.7268 112.142 37.0408 111.7 36.5687C111.272 36.0819 110.667 35.8385 109.885 35.8385ZM116.944 45V34.1788H119.644V35.8606C120.013 35.241 120.507 34.7689 121.127 34.4443C121.761 34.1198 122.469 33.9575 123.251 33.9575C125.803 33.9575 127.08 35.4401 127.08 38.4055V45H124.313V38.5382C124.313 37.6973 124.151 37.0851 123.827 36.7015C123.517 36.3179 123.03 36.1262 122.366 36.1262C121.555 36.1262 120.905 36.3843 120.419 36.9007C119.947 37.4023 119.71 38.0735 119.71 38.9144V45H116.944ZM134.846 45.2213C131.984 45.2213 130.553 43.805 130.553 40.9725V36.2589H128.473V34.1788H130.553V30.9479H133.319V34.1788H136.594V36.2589H133.319V40.8176C133.319 41.5257 133.474 42.0568 133.784 42.4109C134.094 42.7649 134.595 42.942 135.289 42.942C135.495 42.942 135.709 42.9198 135.93 42.8756C136.152 42.8166 136.38 42.7576 136.616 42.6986L137.037 44.7344C136.771 44.882 136.432 45 136.019 45.0885C135.621 45.177 135.23 45.2213 134.846 45.2213Z" fill="white"/>
<defs>
<filter id="filter0_d_0_131" x="0.236053" y="0.751224" width="194.057" height="91.9217" filterUnits="userSpaceOnUse" color-interpolation-filters="sRGB">
<feFlood flood-opacity="0" result="BackgroundImageFix"/>
<feColorMatrix in="SourceAlpha" type="matrix" values="0 0 0 0 0 0 0 0 0 0 0 0 0 0 0 0 0 0 127 0" result="hardAlpha"/>
<feOffset dy="8.51126"/>
<feGaussianBlur stdDeviation="10.2135"/>
<feColorMatrix type="matrix" values="0 0 0 0 0.203922 0 0 0 0 0.396078 0 0 0 0 0.882353 0 0 0 0.3 0"/>
<feBlend mode="normal" in2="BackgroundImageFix" result="effect1_dropShadow_0_131"/>
<feBlend mode="normal" in="SourceGraphic" in2="effect1_dropShadow_0_131" result="shape"/>
</filter>
</defs>
</svg>
