<svg width="28" height="25" viewBox="0 0 28 25" fill="none" xmlns="http://www.w3.org/2000/svg">
<path d="M24.8036 0.196289H21.8571V4.12488C21.8571 4.66732 21.4174 5.10704 20.875 5.10704C20.3325 5.10704 19.8928 4.66732 19.8928 4.12488V0.196289H8.10712V4.12488C8.10712 4.66732 7.6674 5.10704 7.12496 5.10704C6.58252 5.10704 6.1428 4.66732 6.1428 4.12488V0.196289H3.19643C1.56916 0.196289 0.25 1.51545 0.25 3.14272V21.8034C0.25 23.4307 1.56916 24.7499 3.19643 24.7499H24.8036C26.4308 24.7499 27.75 23.4307 27.75 21.8034V3.14272C27.75 1.51545 26.4308 0.196289 24.8036 0.196289ZM25.7857 21.8034C25.7857 22.3459 25.346 22.7856 24.8035 22.7856H3.19643C2.65399 22.7856 2.21427 22.3459 2.21427 21.8034V9.03557H25.7857V21.8034Z" fill="white"/>
</svg>
